<?xml version="1.0" encoding="UTF-8"?>
<svg width="90px" height="90px" viewBox="0 0 90 90" version="1.1" xmlns="http://www.w3.org/2000/svg" xmlns:xlink="http://www.w3.org/1999/xlink">
    <!-- Generator: Sketch 55.1 (78136) - https://sketchapp.com -->
    <title>development@1x</title>
    <desc>Created with Sketch.</desc>
    <g id="Page-1" stroke="none" stroke-width="1" fill="none" fill-rule="evenodd">
        <g id="Pcube-V3" transform="translate(-1087.000000, -1065.000000)" fill-rule="nonzero">
            <g id="development" transform="translate(1087.000000, 1065.000000)">
                <path d="M45,0 C20.1871084,0 0,20.1871084 0,45 C0,69.8128916 20.1871084,90 45,90 C69.8128916,90 90,69.8128916 90,45 C90,20.1871084 69.8128916,0 45,0 Z M46.626506,3.2953012 C68.2037349,4.14 85.8621687,21.7984337 86.7036145,43.373494 L46.626506,43.373494 L46.626506,3.2953012 Z M45,86.746988 C21.9806024,86.746988 3.25301205,68.0193976 3.25301205,45 C3.25301205,22.6409639 21.1510843,4.15843373 43.373494,3.2953012 L43.373494,46.626506 L86.7046988,46.626506 C85.8426506,68.8478313 67.3601205,86.746988 45,86.746988 Z" id="Shape" fill="#305723"></path>
                <path d="M72.3946988,30.2963855 C69.2110843,30.2963855 66.6216867,32.8868675 66.6216867,36.0704819 C66.6216867,39.2540964 69.2121687,41.8445783 72.3946988,41.8445783 C75.5793976,41.8445783 78.1687952,39.2540964 78.1687952,36.0704819 C78.1687952,32.8868675 75.5783133,30.2963855 72.3946988,30.2963855 Z M72.3946988,38.5915663 C71.0056627,38.5915663 69.8746988,37.4606024 69.8746988,36.0704819 C69.8746988,34.6803614 71.0056627,33.5493976 72.3946988,33.5493976 C73.7848193,33.5493976 74.9157831,34.6803614 74.9157831,36.0704819 C74.9157831,37.4606024 73.7848193,38.5915663 72.3946988,38.5915663 Z" id="Shape" fill="#8CC442"></path>
                <path d="M61.9210843,18.0954217 C61.9210843,14.9118072 59.3306024,12.3224096 56.1480723,12.3224096 C52.9655422,12.3224096 50.3750602,14.9118072 50.3750602,18.0954217 C50.3750602,21.2790361 52.9655422,23.8684337 56.1480723,23.8684337 C59.3306024,23.8684337 61.9210843,21.2790361 61.9210843,18.0954217 Z M53.6280723,18.0954217 C53.6280723,16.7063855 54.7590361,15.5754217 56.1480723,15.5754217 C57.5371084,15.5754217 58.6680723,16.7053012 58.6680723,18.0954217 C58.6680723,19.4855422 57.5371084,20.6154217 56.1480723,20.6154217 C54.7590361,20.6154217 53.6280723,19.4855422 53.6280723,18.0954217 Z" id="Shape" fill="#8CC442"></path>
                <polygon id="Rectangle" fill="#8CC442" points="54.2121543 35.7834056 71.9114155 16.1993908 74.3240207 18.3798083 56.6247595 37.9638231"></polygon>
                <path d="M31.8046988,46.8509639 C27.7557831,45.1301205 27.7557831,44.5391566 27.7557831,44.2550602 C27.7557831,43.5578313 28.4161446,43.2043373 29.7195181,43.2043373 C31.9987952,43.2043373 33.3856627,43.9991566 34.2162651,44.4751807 L37.3998795,46.2903614 L40.8448193,37.1916867 L38.5156627,35.8666265 C37.0528916,35.0360241 35.5207229,34.4624096 33.8562651,34.1262651 L33.8562651,29.1198795 L24.573253,29.1198795 L24.573253,34.6554217 C20.1079518,36.3198795 17.3689157,40.1356627 17.3689157,44.7831325 C17.3689157,51.3292771 22.6528916,54.2407229 27.2450602,56.0407229 C30.7192771,57.4471084 30.7192771,58.3980723 30.7192771,58.8556627 C30.7192771,60.0213253 29.3259036,60.4355422 28.1331325,60.4355422 C26.3862651,60.4355422 24.4593976,59.8554217 22.9814458,58.8838554 L19.6590361,56.6978313 L16.3745783,65.8821687 L18.2949398,67.2603614 C19.8628916,68.3826506 21.9621687,69.2154217 24.2815663,69.6437349 L24.2815663,74.7596386 L33.566747,74.7596386 L33.566747,69.0473494 C38.2022892,67.3481928 41.1527713,63.276506 41.1527713,58.4707229 C41.1538554,51.5504819 36.1496386,48.6227711 31.8046988,46.8509639 Z M31.5292771,66.2833735 L30.3148193,66.6021687 L30.3148193,71.5098795 L27.5356627,71.5098795 L27.5356627,66.7756627 L26.0815663,66.6227711 C23.8098795,66.3787952 21.696506,65.6685542 20.2640964,64.6687952 L21.33,61.6879518 C23.296988,62.9414458 25.8278313,63.6874699 28.1342169,63.6874699 C31.5726506,63.6874699 33.9733735,61.7009639 33.9733735,58.856747 C33.9733735,56.333494 32.3251807,54.5877108 28.4508434,53.0186747 C24.3856627,51.4225301 20.6240964,49.3221687 20.6240964,44.7820482 C20.6240964,41.2319277 22.9228916,38.4072289 26.6248193,37.4107229 L27.8273494,37.0854217 L27.8273494,32.3707229 L30.6043373,32.3707229 L30.6043373,36.9563855 L32.0421687,37.1266265 C33.7912048,37.3315663 35.3559036,37.8271084 36.8186747,38.6403614 L35.7072289,41.5756627 C34.7020482,41.0031325 32.7350602,39.9480723 29.7206024,39.9480723 C25.8701205,39.9480723 24.5038554,42.2663855 24.5038554,44.2518072 C24.5038554,46.8281928 26.450241,48.1077108 30.5544578,49.850241 C34.370241,51.4073494 37.9008434,53.5293976 37.9008434,58.4696386 C37.9008434,62.199759 35.3992771,65.2673494 31.5292771,66.2833735 Z" id="Shape" fill="#8CC442"></path>
            </g>
        </g>
    </g>
</svg>