<?xml version="1.0" encoding="UTF-8"?>
<svg width="45px" height="29px" viewBox="0 0 45 29" version="1.1" xmlns="http://www.w3.org/2000/svg" xmlns:xlink="http://www.w3.org/1999/xlink">
    <!-- Generator: Sketch 55.1 (78136) - https://sketchapp.com -->
    <title>Google@2x</title>
    <desc>Created with Sketch.</desc>
    <g id="Page-1" stroke="none" stroke-width="1" fill="none" fill-rule="evenodd">
        <g id="Pcube-V3" transform="translate(-967.000000, -418.000000)" fill="#8CC442" fill-rule="nonzero">
            <path d="M995.066406,432.836289 C995.066406,441.124829 989.578125,447 981.316406,447 C973.40625,447 967,440.511596 967,432.5 C967,424.488404 973.40625,418 981.316406,418 C985.183594,418 988.40625,419.424284 990.90625,421.79809 L987.019531,425.576398 C985.964844,424.547749 984.109375,423.341064 981.316406,423.341064 C976.433594,423.341064 972.449219,427.43588 972.449219,432.5 C972.449219,437.56412 976.433594,441.658936 981.316406,441.658936 C986.980469,441.658936 989.109375,437.524557 989.441406,435.407913 L981.316406,435.407913 L981.316406,430.42292 L994.832031,430.42292 C994.96875,431.154843 995.066406,431.886767 995.066406,432.836289 Z M1012,430.42292 L1012,434.57708 L1007.91797,434.57708 L1007.91797,438.71146 L1003.81641,438.71146 L1003.81641,434.57708 L999.734375,434.57708 L999.734375,430.42292 L1003.81641,430.42292 L1003.81641,426.28854 L1007.91797,426.28854 L1007.91797,430.42292 L1012,430.42292 Z" id="Google"></path>
        </g>
    </g>
</svg>