<?xml version="1.0" encoding="UTF-8"?>
<svg width="30px" height="29px" viewBox="0 0 30 29" version="1.1" xmlns="http://www.w3.org/2000/svg" xmlns:xlink="http://www.w3.org/1999/xlink">
    <!-- Generator: Sketch 55.1 (78136) - https://sketchapp.com -->
    <title>Linkedin@2x</title>
    <desc>Created with Sketch.</desc>
    <g id="Page-1" stroke="none" stroke-width="1" fill="none" fill-rule="evenodd">
        <g id="Pcube-V3" transform="translate(-1052.000000, -418.000000)" fill="#8CC442" fill-rule="nonzero">
            <path d="M1058.81641,427.423025 L1058.81641,447 L1052.37109,447 L1052.37109,427.423025 L1058.81641,427.423025 Z M1059.22656,421.378065 C1059.24609,423.254768 1057.83984,424.756131 1055.59375,424.756131 L1055.55469,424.756131 C1053.38672,424.756131 1052,423.254768 1052,421.378065 C1052,419.461853 1053.44531,418 1055.63281,418 C1057.83984,418 1059.20703,419.461853 1059.22656,421.378065 Z M1068.79688,430.205586 C1069.64477,428.864956 1071.17432,426.968665 1074.59766,426.968665 C1078.83594,426.968665 1082,429.773842 1082,435.779292 L1082,447 L1075.57422,447 L1075.57422,436.529973 C1075.57422,433.902589 1074.63672,432.104905 1072.3125,432.104905 C1070.53516,432.104905 1069.48047,433.309946 1069.01172,434.475477 C1068.85547,434.910082 1068.79688,435.48297 1068.79688,436.075613 L1068.79688,447 L1062.37109,447 C1062.44922,429.260218 1062.37109,427.423025 1062.37109,427.423025 L1068.79688,427.423025 L1068.79688,430.205586 Z" id="Linkedin"></path>
        </g>
    </g>
</svg>