<?xml version="1.0" encoding="UTF-8"?>
<svg width="100px" height="100px" viewBox="0 0 100 100" version="1.1" xmlns="http://www.w3.org/2000/svg" xmlns:xlink="http://www.w3.org/1999/xlink">
    <!-- Generator: Sketch 55.1 (78136) - https://sketchapp.com -->
    <title>research@1x</title>
    <desc>Created with Sketch.</desc>
    <g id="Page-1" stroke="none" stroke-width="1" fill="none" fill-rule="evenodd">
        <g id="Pcube-V3" transform="translate(-739.000000, -1060.000000)" fill-rule="nonzero">
            <g id="research" transform="translate(739.000000, 1060.000000)">
                <path d="M61.1145833,40.6979167 L46.09375,54.8854167 L38.8854167,47.46875 C38.0729167,46.6354167 36.7604167,46.6354167 35.9479167,47.4270833 C35.1145833,48.2395833 35.1145833,49.5520833 35.90625,50.3645833 L44.5520833,59.2395833 C44.96875,59.65625 45.5104167,59.8645833 46.0520833,59.8645833 C46.5729167,59.8645833 47.0729167,59.6770833 47.4895833,59.3020833 L64.0104167,43.71875 C64.84375,42.9270833 64.8854167,41.6145833 64.09375,40.78125 C63.28125,39.9479167 61.96875,39.90625 61.1145833,40.6979167 Z" id="Path" fill="#8CC442"></path>
                <path d="M49.96875,18.8645833 C32.8020833,18.8645833 18.84375,32.8229167 18.84375,49.9895833 C18.84375,67.15625 32.8020833,81.1145833 49.96875,81.1145833 C67.1354167,81.1145833 81.09375,67.15625 81.09375,49.9895833 C81.09375,32.8229167 67.1354167,18.8645833 49.96875,18.8645833 Z M49.96875,76.9479167 C35.09375,76.9479167 23.0104167,64.84375 23.0104167,49.9895833 C23.0104167,35.1354167 35.09375,23.03125 49.96875,23.03125 C64.84375,23.03125 76.9270833,35.1145833 76.9270833,49.9895833 C76.9270833,64.8645833 64.84375,76.9479167 49.96875,76.9479167 Z" id="Shape" fill="#305723"></path>
                <path d="M92.8020833,38.53125 L93.4895833,26.1770833 C93.53125,25.34375 93.09375,24.5729167 92.34375,24.1979167 L81.34375,18.6354167 L75.78125,7.63541667 C75.40625,6.90625 74.6354167,6.44791667 73.8020833,6.48958333 L61.4270833,7.15625 L51.1145833,0.34375 C50.4270833,-0.114583333 49.5104167,-0.114583333 48.8229167,0.34375 L38.5104167,7.15625 L26.15625,6.46875 C25.3229167,6.42708333 24.5520833,6.86458333 24.1770833,7.61458333 L18.6145833,18.6145833 L7.61458333,24.1770833 C6.88541667,24.5520833 6.42708333,25.3229167 6.46875,26.15625 L7.15625,38.5104167 L0.34375,48.8229167 C-0.114583333,49.5104167 -0.114583333,50.4270833 0.34375,51.1145833 L7.13541667,61.4479167 L6.44791667,73.8020833 C6.40625,74.6354167 6.84375,75.40625 7.59375,75.78125 L18.59375,81.34375 L24.15625,92.34375 C24.53125,93.0729167 25.3020833,93.53125 26.1354167,93.4895833 L38.4895833,92.8020833 L48.8020833,99.6145833 C49.15625,99.84375 49.5520833,99.96875 49.9479167,99.96875 C50.34375,99.96875 50.7395833,99.84375 51.09375,99.6145833 L61.40625,92.8020833 L73.7604167,93.4895833 C74.59375,93.53125 75.3645833,93.09375 75.7395833,92.34375 L81.3020833,81.34375 L92.3020833,75.78125 C93.03125,75.40625 93.4895833,74.6354167 93.4479167,73.8020833 L92.7604167,61.4479167 L99.5729167,51.1354167 C100.03125,50.4479167 100.03125,49.53125 99.5729167,48.84375 L92.8020833,38.53125 Z M88.9270833,59.7395833 C88.6770833,60.1145833 88.5520833,60.5520833 88.59375,61.0104167 L89.2395833,72.6979167 L78.84375,77.9479167 C78.4479167,78.15625 78.1145833,78.46875 77.9270833,78.8645833 L72.6770833,89.2604167 L60.9895833,88.6145833 C60.5520833,88.59375 60.09375,88.71875 59.71875,88.9479167 L49.96875,95.3854167 L40.21875,88.9479167 C39.8854167,88.71875 39.46875,88.59375 39.0729167,88.59375 C39.03125,88.59375 38.9895833,88.59375 38.96875,88.59375 L27.28125,89.2395833 L22.03125,78.84375 C21.8229167,78.4479167 21.5104167,78.1145833 21.1145833,77.9270833 L10.6979167,72.6979167 L11.34375,61.0104167 C11.3645833,60.5729167 11.2395833,60.1145833 11.0104167,59.7395833 L4.57291667,49.9895833 L11.0104167,40.2395833 C11.2604167,39.8645833 11.3854167,39.4270833 11.34375,38.96875 L10.6979167,27.28125 L21.09375,22.03125 C21.4895833,21.8229167 21.8229167,21.5104167 22.0104167,21.1145833 L27.2604167,10.71875 L38.9479167,11.3645833 C39.3854167,11.3854167 39.84375,11.2604167 40.21875,11.03125 L49.96875,4.59375 L59.71875,11.03125 C60.09375,11.28125 60.53125,11.40625 60.9895833,11.3645833 L72.6770833,10.71875 L77.9270833,21.1145833 C78.1354167,21.5104167 78.4479167,21.84375 78.84375,22.03125 L89.2395833,27.28125 L88.59375,38.96875 C88.5729167,39.40625 88.6979167,39.8645833 88.9270833,40.2395833 L95.3645833,49.9895833 L88.9270833,59.7395833 Z" id="Shape" fill="#305723"></path>
            </g>
        </g>
    </g>
</svg>