<?xml version="1.0" encoding="UTF-8"?>
<svg width="100px" height="89px" viewBox="0 0 100 89" version="1.1" xmlns="http://www.w3.org/2000/svg" xmlns:xlink="http://www.w3.org/1999/xlink">
    <!-- Generator: Sketch 55.1 (78136) - https://sketchapp.com -->
    <title>strategy@1x</title>
    <desc>Created with Sketch.</desc>
    <g id="Page-1" stroke="none" stroke-width="1" fill="none" fill-rule="evenodd">
        <g id="Pcube-V3" transform="translate(-396.000000, -1063.000000)" fill-rule="nonzero">
            <g id="strategy" transform="translate(396.000000, 1063.000000)">
                <path d="M55.6811168,-2.84217094e-14 C54.4259651,-2.84217094e-14 53.4084188,1.01444405 53.4084188,2.26576905 L53.4084188,6.79730999 C53.410404,8.04725886 54.4273439,9.05949425 55.6811168,9.05949425 C56.9348897,9.05949425 57.9518296,8.04725886 57.9538148,6.79730999 L57.9538148,4.60064017 C78.117258,5.77639318 94.2046749,21.8147545 95.3840342,41.9167231 L93.1806467,41.9167231 C91.9264631,41.9181231 90.9104905,42.9321329 90.9104905,44.1824936 C90.9104905,45.4328543 91.9264631,46.4468641 93.1806467,46.4482641 L95.3840456,46.4482641 C94.204701,66.550249 78.1172737,82.5886292 57.9538148,83.7643783 L57.9538148,81.5677113 C57.9538148,80.3163616 56.9362933,79.3019423 55.6811168,79.3019423 C54.4259404,79.3019423 53.4084188,80.3163616 53.4084188,81.5677113 L53.4084188,86.0992494 C53.4084188,87.3505742 54.4259653,88.3650213 55.6811168,88.3650213 C80.117812,88.3650213 99.998735,68.5446994 99.998735,44.1825092 C99.998735,19.820319 80.1178034,-2.84217094e-14 55.6811168,-2.84217094e-14 Z" id="Path" fill="#305723"></path>
                <path d="M60.9840798,44.560135 C60.9827311,44.1219617 60.9224542,43.6859471 60.8048604,43.2637462 L78.6280142,27.3954242 C79.1762732,26.9072215 79.2380201,26.0737538 78.7676542,25.5105463 C78.2972883,24.9473388 77.4639195,24.8568808 76.883,25.3059764 L57.8777778,40.0006681 C55.8686547,39.2055759 53.5743179,39.8102684 52.2218092,41.4913481 C50.8693005,43.1724278 50.7751356,45.5364863 51.9896752,47.3191938 C53.2042148,49.1019013 55.4432308,49.8860664 57.5092677,49.2523071 C59.5753047,48.6185479 60.984866,46.7151774 60.9840997,44.5601436 L60.9840798,44.560135 Z M53.7872061,44.560135 C53.7895458,43.5666986 54.4428458,42.69147 55.3966724,42.4039369 L55.3966724,42.4039369 C55.4947987,42.3740509 55.5945372,42.3497048 55.6954131,42.3310146 C56.4216656,42.2011935 57.1654908,42.4359632 57.6844819,42.9588141 C58.2034731,43.481665 58.4311655,44.2256381 58.2933561,44.9482785 C58.270393,45.0656996 58.2391812,45.1813667 58.1999516,45.2944251 L58.1999516,45.2944251 C57.8421086,46.3421 56.7758651,46.9772746 55.6808787,46.7950684 C54.5858923,46.6128621 53.784364,45.6668895 53.7872061,44.5601436 L53.7872061,44.560135 Z" id="Shape" fill="#305723"></path>
                <path d="M42.1080541,42.294366 L1.83078632,42.294366 C0.81974359,42.294366 -4.26325641e-14,43.3088675 -4.26325641e-14,44.560135 C-4.26325641e-14,45.8114025 0.819740741,46.8259069 1.83078348,46.8259069 L42.1080541,46.8259069 C43.1190997,46.8259069 43.9388234,45.8113997 43.9388234,44.560135 C43.9388234,43.3088704 43.1190883,42.294366 42.1080541,42.294366 Z" id="Path" fill="#8CC442"></path>
                <path d="M42.2487179,64.952065 L11.8265698,64.952065 C10.8932108,64.952065 10.1364473,65.9665722 10.1364473,67.217834 C10.1364473,68.4690959 10.8932051,69.4836059 11.8265698,69.4836059 L42.2487179,69.4836059 C43.1820798,69.4836059 43.9388376,68.4690987 43.9388376,67.217834 C43.9388376,65.9665694 43.1820826,64.952065 42.2487179,64.952065 Z" id="Path" fill="#8CC442"></path>
                <path d="M42.2487179,19.636667 L11.8265698,19.636667 C10.8932108,19.636667 10.1364473,20.6511742 10.1364473,21.9024389 C10.1364473,23.1537035 10.8932051,24.1682079 11.8265698,24.1682079 L42.2487179,24.1682079 C43.1820798,24.1682079 43.9388376,23.1537007 43.9388376,21.9024389 C43.9388376,20.651177 43.1820826,19.636667 42.2487179,19.636667 Z" id="Path" fill="#8CC442"></path>
            </g>
        </g>
    </g>
</svg>