<?xml version="1.0" encoding="UTF-8"?>
<svg width="31px" height="25px" viewBox="0 0 31 25" version="1.1" xmlns="http://www.w3.org/2000/svg" xmlns:xlink="http://www.w3.org/1999/xlink">
    <!-- Generator: Sketch 55.1 (78136) - https://sketchapp.com -->
    <title>Twitter@2x</title>
    <desc>Created with Sketch.</desc>
    <g id="Page-1" stroke="none" stroke-width="1" fill="none" fill-rule="evenodd">
        <g id="Pcube-V3" transform="translate(-896.000000, -420.000000)" fill="#8CC442" fill-rule="nonzero">
            <path d="M927,422.96875 C926.134518,424.21875 925.052665,425.332031 923.813452,426.230469 C923.833122,426.503906 923.833122,426.777344 923.833122,427.050781 C923.833122,435.390625 917.440355,445 905.756345,445 C902.156726,445 898.812817,443.964844 896,442.167969 C896.511421,442.226562 897.003173,442.246094 897.534264,442.246094 C900.504442,442.246094 903.238579,441.25 905.421954,439.550781 C902.628807,439.492188 900.288071,437.675781 899.481599,435.175781 C899.875,435.234375 900.268401,435.273438 900.681472,435.273438 C901.251904,435.273438 901.822335,435.195312 902.353426,435.058594 C899.442259,434.472656 897.258883,431.933594 897.258883,428.867188 C897.258883,428.847656 897.258883,428.808594 897.258883,428.789062 C898.104695,429.257812 899.088198,429.550781 900.130711,429.589844 C898.419416,428.457031 897.298223,426.523438 897.298223,424.335938 C897.298223,423.164062 897.612944,422.089844 898.163706,421.152344 C901.291244,424.980469 905.992386,427.480469 911.263959,427.753906 C911.165609,427.285156 911.106599,426.796875 911.106599,426.308594 C911.106599,422.832031 913.939086,420 917.460025,420 C919.28934,420 920.941624,420.761719 922.102157,421.992188 C923.538071,421.71875 924.914975,421.191406 926.134518,420.46875 C925.662437,421.933594 924.659264,423.164062 923.341371,423.945312 C924.619924,423.808594 925.859137,423.457031 927,422.96875 Z" id="Twitter"></path>
        </g>
    </g>
</svg>